<svg id="SvgjsSvg1001" width="288" height="288" xmlns="http://www.w3.org/2000/svg" version="1.1" xmlns:xlink="http://www.w3.org/1999/xlink" xmlns:svgjs="http://svgjs.com/svgjs"><defs id="SvgjsDefs1002"></defs><g id="SvgjsG1008"><svg xmlns="http://www.w3.org/2000/svg" width="288" height="288" fill="none" viewBox="0 0 243 54"><path fill="#ffffff" d="M50.7749 2.68287L42.2451 24.8369C40.2642 30.2839 38.4046 35.7309 36.7067 40.9341H36.545C36.828 35.9748 36.9897 30.9749 37.0301 24.9994L37.1918 2.72352H25.4279L16.5746 25.0401C14.2299 31.0969 12.4512 36.2594 10.6724 41.178H10.5107C10.6724 36.6252 10.7937 30.9343 10.8341 24.8369V2.68287H0L1.90002 52.8444H13.8257L22.2747 32.7229C24.7811 26.5441 26.5194 21.1377 28.3385 15.7314H28.5003C28.1768 21.4223 28.0151 26.5441 28.096 32.4383L28.379 52.8444H40.1025L62.0537 2.68287H50.7749ZM77.5368 15.5688C64.4389 15.5688 56.4345 27.1132 56.4345 38.1699C56.4345 47.6819 61.7708 53.5761 72.1198 53.5761C76.1219 53.5761 81.4582 52.8444 85.6625 50.6899L84.9348 42.8852C82.0646 44.308 78.6688 45.2023 74.7475 45.2023C71.6347 45.2023 69.2495 44.2673 67.8346 42.4381C67.0666 41.4218 66.7027 39.7959 66.6623 38.739C81.1752 39.1455 90.1497 35.7309 90.1497 26.5035C90.1901 19.7557 84.8944 15.5688 77.5368 15.5688ZM80.1241 26.5441C80.1241 29.8367 76.0007 30.9749 67.7538 30.8936C68.441 27.5604 71.3113 23.4548 76.2432 23.4548C78.6283 23.4548 80.1241 24.7149 80.1241 26.4628V26.5441ZM120.186 15.5688C115.739 15.5688 111.697 17.5606 109.029 20.7312H108.867L113.152 0H102.399L95.0413 36.7472C94.5966 38.9422 94.2327 41.178 94.2327 43.4137C94.1923 49.9176 98.5179 53.6167 107.169 53.6167C123.42 53.6167 131.142 40.0804 131.142 28.2514C131.101 21.7881 127.705 15.5688 120.186 15.5688ZM109.392 45.4868C106.926 45.4868 105.431 44.0641 105.35 41.5032C105.269 39.9585 105.512 38.617 105.754 37.4382L106.361 34.4708C107.614 28.1701 111.414 24.3084 115.214 24.3084C118.448 24.3084 119.903 26.9913 119.903 30.5278C119.863 36.8691 115.497 45.4868 109.392 45.4868ZM135.144 40.9747C135.144 48.5762 139.631 53.6574 146.099 53.6574C150.303 53.6574 154.952 51.7062 158.348 45.6494H158.51C158.308 48.2103 158.106 50.6899 158.025 52.8444H167.889C167.767 48.2916 168.455 41.1373 169.344 36.4626L172.982 17.4386C170.031 16.4631 165.382 15.6094 161.057 15.6094C143.269 15.5688 135.144 28.6986 135.144 40.9747ZM159.44 32.4383C157.823 41.3406 153.82 44.9177 150.708 44.9177C147.797 44.9177 146.342 42.4787 146.342 38.9016C146.342 32.1944 151.314 23.7393 158.187 23.7393C159.238 23.7393 160.167 23.8613 160.976 24.0645L159.44 32.4383ZM175.206 52.8444H185.959L196.025 0H185.272L175.206 52.8444ZM217.693 15.5688C204.838 15.5688 196.025 25.975 196.025 38.5764C196.025 47.6412 202.21 53.6167 211.427 53.6167H211.508C223.959 53.6167 233.096 43.8608 233.096 30.5684C233.096 22.2759 227.436 15.5688 217.693 15.5688ZM212.842 45.4055H212.761C209.164 45.4055 207.061 42.6007 207.061 38.3731C207.061 32.8042 210.134 23.8206 216.238 23.8206C220.442 23.8206 221.898 27.3165 221.898 30.6904C221.898 36.8285 218.623 45.4055 212.842 45.4055ZM239.2 15.4062C237.138 15.4062 235.4 16.9508 235.4 19.3085C235.4 21.5442 236.977 23.2109 239.2 23.2109C241.221 23.2109 243 21.6662 243 19.3085C243 16.9508 241.221 15.4062 239.2 15.4062ZM239.2 22.5198C237.34 22.5198 236.208 21.0564 236.208 19.3085C236.208 17.398 237.502 16.0972 239.2 16.0972C240.857 16.0972 242.151 17.4386 242.151 19.3085C242.151 21.219 240.857 22.5198 239.2 22.5198ZM240.898 18.4549C240.898 17.5606 240.372 17.1947 239.321 17.1947H237.704V21.5036H238.391V19.6744H239.038L240.13 21.5036H240.938L239.726 19.5931C240.453 19.5524 240.898 19.2272 240.898 18.4549ZM238.432 19.0646V17.8045H239.281C239.726 17.8045 240.211 17.8858 240.211 18.3736C240.211 18.9833 239.726 19.0646 239.2 19.0646H238.432Z" class="color0976A8 svgShape"></path></svg></g></svg>